<svg width="188" height="188" viewBox="0 0 188 188" fill="none" xmlns="http://www.w3.org/2000/svg">
<path d="M180.558 94.5C180.558 141.72 142.054 180 94.5579 180C47.0614 180 8.55786 141.72 8.55786 94.5C8.55786 47.2797 47.0614 9 94.5579 9C142.054 9 180.558 47.2797 180.558 94.5Z" fill="#FBFBFB"/>
<path d="M172.558 94.5C172.558 137.302 137.636 172 94.5579 172C51.4797 172 16.5579 137.302 16.5579 94.5C16.5579 51.6979 51.4797 17 94.5579 17C137.636 17 172.558 51.6979 172.558 94.5Z" fill="#292929"/>
<path d="M45.9861 130H37.7475L50.3008 93.6364H60.2084L72.7439 130H64.5053L55.3966 101.946H55.1125L45.9861 130ZM45.4712 115.707H64.9314V121.708H45.4712V115.707ZM96.0172 104.094C95.8752 102.662 95.2655 101.549 94.1884 100.756C93.1112 99.9633 91.6493 99.5668 89.8027 99.5668C88.548 99.5668 87.4886 99.7443 86.6244 100.099C85.7603 100.443 85.0975 100.922 84.6358 101.538C84.186 102.153 83.9611 102.852 83.9611 103.633C83.9374 104.284 84.0735 104.852 84.3695 105.337C84.6772 105.823 85.0975 106.243 85.6301 106.598C86.1628 106.941 86.7783 107.243 87.4767 107.504C88.1751 107.752 88.9208 107.965 89.7139 108.143L92.981 108.924C94.5672 109.279 96.0231 109.753 97.3489 110.344C98.6746 110.936 99.8228 111.664 100.793 112.528C101.764 113.393 102.516 114.411 103.048 115.582C103.593 116.754 103.871 118.098 103.883 119.613C103.871 121.838 103.303 123.768 102.178 125.401C101.066 127.023 99.4559 128.284 97.3489 129.183C95.2537 130.071 92.7265 130.515 89.7672 130.515C86.8316 130.515 84.2748 130.065 82.0967 129.165C79.9306 128.266 78.2378 126.934 77.0186 125.17C75.8112 123.395 75.1779 121.199 75.1188 118.583H82.5584C82.6413 119.802 82.9904 120.82 83.606 121.637C84.2333 122.442 85.0679 123.052 86.1095 123.466C87.163 123.868 88.3527 124.07 89.6784 124.07C90.9805 124.07 92.111 123.88 93.0698 123.501C94.0404 123.123 94.7921 122.596 95.3247 121.921C95.8574 121.246 96.1237 120.471 96.1237 119.595C96.1237 118.778 95.8811 118.092 95.3958 117.536C94.9223 116.979 94.2239 116.506 93.3006 116.115C92.3891 115.724 91.2705 115.369 89.9448 115.05L85.9852 114.055C82.9194 113.31 80.4987 112.144 78.7232 110.558C76.9476 108.971 76.0657 106.835 76.0776 104.148C76.0657 101.946 76.6517 100.022 77.8354 98.3771C79.0309 96.7318 80.6704 95.4474 82.7537 94.5241C84.837 93.6009 87.2045 93.1392 89.856 93.1392C92.5548 93.1392 94.9104 93.6009 96.9227 94.5241C98.9469 95.4474 100.521 96.7318 101.646 98.3771C102.77 100.022 103.35 101.928 103.386 104.094H96.0172ZM109.054 93.6364H118.536L128.55 118.068H128.976L138.99 93.6364H148.472V130H141.015V106.332H140.713L131.302 129.822H126.224L116.814 106.243H116.512V130H109.054V93.6364Z" fill="white"/>
<path d="M65.657 74H60.7138L68.2457 52.1818H74.1903L81.7116 74H76.7685L71.3033 57.1676H71.1328L65.657 74ZM65.348 65.424H77.0241V69.0249H65.348V65.424ZM84.3377 74V52.1818H92.9457C94.5934 52.1818 95.9996 52.4766 97.1644 53.0661C98.3363 53.6484 99.2276 54.4759 99.8384 55.5483C100.456 56.6136 100.765 57.8672 100.765 59.3089C100.765 60.7578 100.453 62.0043 99.8278 63.0483C99.2028 64.0852 98.2972 64.8807 97.1112 65.4347C95.9322 65.9886 94.5046 66.2656 92.8285 66.2656H87.065V62.5582H92.0827C92.9634 62.5582 93.695 62.4375 94.2773 62.196C94.8597 61.9545 95.293 61.5923 95.5771 61.1094C95.8683 60.6264 96.0138 60.0263 96.0138 59.3089C96.0138 58.5845 95.8683 57.9737 95.5771 57.4766C95.293 56.9794 94.8562 56.603 94.2667 56.3473C93.6843 56.0845 92.9492 55.9531 92.0614 55.9531H88.9506V74H84.3377ZM96.1204 64.071L101.543 74H96.4506L91.1452 64.071H96.1204ZM104.025 52.1818H109.714L115.723 66.8409H115.978L121.987 52.1818H127.676V74H123.201V59.799H123.02L117.374 73.8935H114.327L108.681 59.7457H108.5V74H104.025V52.1818Z" fill="white"/>
</svg>
