<svg width="338" height="239" viewBox="0 0 338 239" fill="none" xmlns="http://www.w3.org/2000/svg">
<rect width="338" height="239" rx="40" fill="#F4F4F4"/>
<path d="M149.269 36.45C149.169 36.05 149.119 35.6 149.119 35.1C149.119 34.5667 149.169 34.2 149.269 34C149.603 33.6667 151.186 32.1333 154.019 29.4C156.886 26.6667 158.636 25 159.269 24.4C160.436 23.3667 162.053 22.15 164.119 20.75L166.119 22.95C159.786 29.0833 156.153 32.5667 155.219 33.4C154.319 34.2333 153.669 34.8 153.269 35.1C154.336 35.9667 154.903 36.4333 154.969 36.5L166.119 47.2L164.119 49.4C162.319 48.2 160.886 47.15 159.819 46.25C158.786 45.3167 156.836 43.5167 153.969 40.85C151.103 38.1833 149.536 36.7167 149.269 36.45ZM188.24 34C188.34 34.2 188.39 34.5667 188.39 35.1C188.39 35.6 188.34 36.05 188.24 36.45C187.973 36.7167 186.406 38.1833 183.54 40.85C180.673 43.5167 178.906 45.1333 178.24 45.7C176.773 46.9667 175.156 48.2 173.39 49.4L171.39 47.2C177.723 41.0667 181.173 37.7333 181.74 37.2C182.34 36.6667 183.173 35.9667 184.24 35.1C183.84 34.8 183.273 34.3167 182.54 33.65L171.39 22.95L173.39 20.75C175.223 21.9167 176.64 22.9667 177.64 23.9C178.673 24.8333 180.606 26.6667 183.44 29.4C186.306 32.1333 187.906 33.6667 188.24 34Z" fill="black"/>
<path d="M128.6 204.45C128.5 204.05 128.45 203.6 128.45 203.1C128.45 202.567 128.5 202.2 128.6 202C128.934 201.667 130.517 200.133 133.35 197.4C136.217 194.667 137.967 193 138.6 192.4C139.767 191.367 141.384 190.15 143.45 188.75L145.45 190.95C139.117 197.083 135.484 200.567 134.55 201.4C133.65 202.233 133 202.8 132.6 203.1C133.667 203.967 134.234 204.433 134.3 204.5L145.45 215.2L143.45 217.4C141.65 216.2 140.217 215.15 139.15 214.25C138.117 213.317 136.167 211.517 133.3 208.85C130.434 206.183 128.867 204.717 128.6 204.45ZM173.709 181C174.609 180.9 175.292 180.85 175.759 180.85C176.226 180.85 176.992 180.933 178.059 181.1L164.359 216C163.659 216.133 163.009 216.2 162.409 216.2C161.809 216.2 161.242 216.167 160.709 216.1L173.709 181ZM210.909 202C211.009 202.2 211.059 202.567 211.059 203.1C211.059 203.6 211.009 204.05 210.909 204.45C210.642 204.717 209.075 206.183 206.209 208.85C203.342 211.517 201.575 213.133 200.909 213.7C199.442 214.967 197.825 216.2 196.059 217.4L194.059 215.2C200.392 209.067 203.842 205.733 204.409 205.2C205.009 204.667 205.842 203.967 206.909 203.1C206.509 202.8 205.942 202.317 205.209 201.65L194.059 190.95L196.059 188.75C197.892 189.917 199.309 190.967 200.309 191.9C201.342 192.833 203.275 194.667 206.109 197.4C208.975 200.133 210.575 201.667 210.909 202Z" fill="black"/>
<path d="M107.392 64.2L106.892 92.6L111.092 93C111.092 93.9333 110.809 94.9333 110.242 96H98.7424L98.5924 94.25C100.126 93.7167 101.642 93.3167 103.142 93.05C103.076 90.8833 102.959 86.4167 102.792 79.65C102.659 72.8833 102.542 67.65 102.442 63.95C101.109 63.6833 99.609 63.2833 97.9424 62.75L98.0924 61H110.592C111.159 62.0667 111.442 63.0667 111.442 64C109.742 64.1333 108.392 64.2 107.392 64.2ZM152.625 88.15C152.725 88.35 152.858 89.1167 153.025 90.45C153.225 91.7833 153.325 92.9167 153.325 93.85C153.325 94.75 153.275 95.4667 153.175 96H129.425L129.275 94.25C130.841 93.6833 132.258 93.3 133.525 93.1C133.325 79.9667 133.158 70.2833 133.025 64.05C132.158 63.9167 130.691 63.5167 128.625 62.85L128.875 61H140.925C141.491 61.9333 141.775 62.9167 141.775 63.95C139.975 64.0167 138.675 64.0667 137.875 64.1C137.808 70.5 137.741 76.3333 137.675 81.6C137.641 86.8333 137.608 90.5167 137.575 92.65H148.525L149.725 87.9C151.391 87.9 152.358 87.9833 152.625 88.15ZM215.879 73.95L206.129 96H202.579L193.429 74L189.229 73.6C189.229 72.6667 189.513 71.6667 190.079 70.6H202.179L202.329 72.35C201.263 72.8167 200.079 73.1833 198.779 73.45L203.279 87.1L204.429 91.5H205.029L206.279 87.05L210.929 73.45L206.729 72.35L206.879 70.6H219.129C219.696 71.6667 219.979 72.6667 219.979 73.6C218.613 73.7667 217.246 73.8833 215.879 73.95ZM232.722 93.2C234.188 93.2 236.488 92.5 239.622 91.1C240.255 91.9667 240.588 92.7333 240.622 93.4C238.922 94.4 237.255 95.1833 235.622 95.75C233.988 96.3167 232.822 96.6 232.122 96.6C228.255 96.6 225.305 95.45 223.272 93.15C221.238 90.8167 220.222 87.5667 220.222 83.4C220.222 79.2333 221.205 75.9667 223.172 73.6C225.172 71.2 228.155 70 232.122 70C235.188 70 237.522 71.1 239.122 73.3C240.755 75.5 241.572 78.45 241.572 82.15C241.305 82.6167 241.088 82.9333 240.922 83.1L224.822 82.85C224.855 86.2167 225.438 88.7833 226.572 90.55C227.738 92.3167 229.788 93.2 232.722 93.2ZM237.022 80C237.022 77.8 236.622 76.1 235.822 74.9C235.022 73.6667 233.688 73.05 231.822 73.05C229.955 73.05 228.288 73.4 226.822 74.1C225.822 76.1 225.188 78.15 224.922 80.25C227.555 80.2167 231.588 80.1333 237.022 80ZM27.6895 121C31.9228 121 35.0561 121.7 37.0895 123.1C39.1561 124.467 40.1895 126.9 40.1895 130.4C40.1895 133.9 39.1728 136.683 37.1395 138.75C35.1061 140.783 31.8228 141.8 27.2895 141.8H23.0895L22.9395 152.65L26.8395 153C26.8395 153.933 26.5561 154.933 25.9895 156H14.7395L14.5895 154.3C15.9895 153.767 17.4228 153.367 18.8895 153.1C18.6895 140.1 18.5228 130.433 18.3895 124.1C17.4895 123.933 16.0228 123.533 13.9895 122.9L14.2395 121H27.6895ZM26.7895 138.55C29.6561 138.517 31.8395 137.8 33.3395 136.4C34.8395 134.967 35.5895 133.083 35.5895 130.75C35.5895 128.417 34.8561 126.8 33.3895 125.9C31.9228 124.967 29.5728 124.5 26.3395 124.5C25.7395 124.5 24.7228 124.517 23.2895 124.55C23.2895 124.583 23.2395 129.267 23.1395 138.6L26.7895 138.55ZM57.3492 134.2C57.1826 134.033 56.8159 133.95 56.2492 133.95C55.6826 133.95 54.8326 134.15 53.6992 134.55C52.5992 134.95 51.5992 135.417 50.6992 135.95C50.4992 143.35 50.3659 148.9 50.2992 152.6L54.4992 153C54.4992 153.933 54.2159 154.933 53.6492 156H42.1492L41.9992 154.25C43.5326 153.717 45.0326 153.317 46.4992 153.05C46.2992 144.583 46.1326 138.317 45.9992 134.25C44.1659 134.15 42.6992 133.95 41.5992 133.65L41.7992 131.05C43.5659 130.55 46.1826 130.3 49.6492 130.3C50.1826 131.133 50.5159 132.2 50.6492 133.5C54.4826 131.167 56.7659 130 57.4992 130C58.2326 130 59.0826 130.15 60.0492 130.45C61.0159 130.717 61.7326 131.017 62.1992 131.35C62.1992 134.683 61.8826 137.4 61.2492 139.5C60.7826 139.633 60.2326 139.7 59.5992 139.7C58.9992 139.7 58.5826 139.683 58.3492 139.65L57.3492 134.2ZM75.0102 153.6C77.8102 153.6 79.6935 152.733 80.6602 151C81.6602 149.233 82.1602 146.733 82.1602 143.5C82.1602 138.367 81.0268 135.15 78.7602 133.85C77.8268 133.317 76.5102 133.05 74.8102 133.05C73.1435 133.05 71.5602 133.4 70.0602 134.1C68.7268 136.667 68.0602 139.65 68.0602 143.05C68.0602 146.317 68.4935 148.833 69.3602 150.6C70.3602 152.6 72.2435 153.6 75.0102 153.6ZM63.4602 143.5C63.4602 139.267 64.4268 135.967 66.3602 133.6C68.2935 131.2 71.2768 130 75.3102 130C79.3435 130 82.2602 131.1 84.0602 133.3C85.8602 135.467 86.7602 138.683 86.7602 142.95C86.7602 147.217 85.7935 150.567 83.8602 153C81.9602 155.433 79.0602 156.65 75.1602 156.65C71.2602 156.65 68.3268 155.517 66.3602 153.25C64.4268 150.983 63.4602 147.733 63.4602 143.5ZM102.564 152.95L107.014 152.85C111.614 152.85 113.914 154.75 113.914 158.55C113.914 160.317 113.148 161.95 111.614 163.45C110.114 164.983 108.314 166.133 106.214 166.9C104.114 167.667 102.148 168.05 100.314 168.05C98.5145 168.05 96.8311 167.783 95.2645 167.25C93.6978 166.75 92.3645 165.917 91.2645 164.75C90.1645 163.583 89.6145 162.233 89.6145 160.7C89.6145 160.333 90.1978 159.367 91.3645 157.8C92.5645 156.267 93.3478 155.367 93.7145 155.1C93.4145 154.9 92.8311 154.333 91.9645 153.4C91.0978 152.433 90.6145 151.767 90.5145 151.4C91.3478 149.867 92.6645 148.367 94.4645 146.9C91.7978 145.3 90.4645 142.667 90.4645 139C90.4645 136.067 91.3978 133.833 93.2645 132.3C95.1311 130.767 97.4645 130 100.264 130C103.064 130 105.231 130.45 106.764 131.35C109.431 130.817 112.048 130.55 114.614 130.55C115.248 130.55 115.564 130.933 115.564 131.7C115.564 133.033 115.314 133.95 114.814 134.45L109.064 133.5C110.264 135.033 110.864 136.867 110.864 139C110.864 142.333 109.881 144.733 107.914 146.2C105.948 147.633 103.531 148.35 100.664 148.35C99.7645 148.35 98.6978 148.233 97.4645 148C96.9645 149.033 96.3311 150.15 95.5645 151.35C96.1645 152.417 98.4978 152.95 102.564 152.95ZM108.914 162.15C109.248 161.217 109.414 160.25 109.414 159.25C109.414 158.283 109.031 157.5 108.264 156.9C107.498 156.3 106.514 156 105.314 156C100.548 156 97.6311 155.95 96.5645 155.85C95.6645 157.283 95.0311 158.483 94.6645 159.45C94.3311 160.45 94.1645 161.017 94.1645 161.15C94.1645 162.45 94.7811 163.417 96.0145 164.05C97.2478 164.683 98.6645 165 100.264 165C101.898 165 103.531 164.733 105.164 164.2C106.831 163.667 108.081 162.983 108.914 162.15ZM106.364 139.2C106.364 135.067 104.464 133 100.664 133C96.8645 133 94.9645 135 94.9645 139C94.9645 141.033 95.4645 142.6 96.4645 143.7C97.4645 144.8 98.9145 145.35 100.814 145.35C104.514 145.35 106.364 143.3 106.364 139.2ZM132.621 134.2C132.454 134.033 132.087 133.95 131.521 133.95C130.954 133.95 130.104 134.15 128.971 134.55C127.871 134.95 126.871 135.417 125.971 135.95C125.771 143.35 125.637 148.9 125.571 152.6L129.771 153C129.771 153.933 129.487 154.933 128.921 156H117.421L117.271 154.25C118.804 153.717 120.304 153.317 121.771 153.05C121.571 144.583 121.404 138.317 121.271 134.25C119.437 134.15 117.971 133.95 116.871 133.65L117.071 131.05C118.837 130.55 121.454 130.3 124.921 130.3C125.454 131.133 125.787 132.2 125.921 133.5C129.754 131.167 132.037 130 132.771 130C133.504 130 134.354 130.15 135.321 130.45C136.287 130.717 137.004 131.017 137.471 131.35C137.471 134.683 137.154 137.4 136.521 139.5C136.054 139.633 135.504 139.7 134.871 139.7C134.271 139.7 133.854 139.683 133.621 139.65L132.621 134.2ZM158.832 139.65L158.582 152.55C160.015 152.65 161.448 152.883 162.882 153.25L162.782 155C162.248 155.267 161.282 155.567 159.882 155.9C158.515 156.2 157.165 156.35 155.832 156.35C155.232 155.15 154.898 154 154.832 152.9C151.032 155.4 148.365 156.65 146.832 156.65C144.465 156.65 142.565 156.017 141.132 154.75C139.698 153.483 138.982 151.717 138.982 149.45C138.982 144.217 142.182 141.517 148.582 141.35C152.315 141.25 154.198 141.2 154.232 141.2L154.182 139.5C154.115 137.2 153.682 135.55 152.882 134.55C152.082 133.517 150.648 133 148.582 133C147.715 133 146.782 133.2 145.782 133.6L144.582 138.6C144.415 138.633 144.132 138.65 143.732 138.65L141.682 138.5C141.148 137.067 140.865 135.083 140.832 132.55C141.465 132.217 142.915 131.717 145.182 131.05C147.448 130.35 148.898 130 149.532 130C152.932 130 155.332 130.75 156.732 132.25C158.132 133.75 158.832 136.217 158.832 139.65ZM147.932 153.25C148.898 153.25 151.132 152.167 154.632 150L154.382 143.75C152.115 143.95 150.215 144.133 148.682 144.3C147.148 144.467 145.915 144.917 144.982 145.65C144.048 146.35 143.582 147.467 143.582 149C143.582 151.833 145.032 153.25 147.932 153.25ZM188.935 135.6C189.068 136.667 189.135 137.9 189.135 139.3C189.135 140.7 189.001 145.133 188.735 152.6L192.935 153C192.935 153.933 192.651 154.933 192.085 156H180.585L180.435 154.25C181.968 153.717 183.468 153.317 184.935 153.05C184.735 144.183 184.551 139.25 184.385 138.25C184.251 137.25 184.018 136.417 183.685 135.75C183.351 135.05 182.835 134.567 182.135 134.3C181.435 134.033 180.368 133.9 178.935 133.9C177.535 133.9 175.685 134.433 173.385 135.5C173.185 143.1 173.051 148.8 172.985 152.6L177.185 153C177.185 153.933 176.901 154.933 176.335 156H164.835L164.685 154.25C166.218 153.717 167.718 153.317 169.185 153.05C169.151 150.65 169.068 147.267 168.935 142.9C168.801 138.5 168.718 135.617 168.685 134.25C166.851 134.15 165.385 133.95 164.285 133.65L164.485 131.05C166.285 130.55 168.901 130.3 172.335 130.3C172.801 131.133 173.101 132 173.235 132.9C174.701 132.133 176.151 131.467 177.585 130.9C179.018 130.3 179.918 130 180.285 130C183.985 130 186.568 131.133 188.035 133.4C189.568 132.567 191.151 131.8 192.785 131.1C194.451 130.367 195.451 130 195.785 130C198.818 130 201.085 130.75 202.585 132.25C204.118 133.717 204.885 136.133 204.885 139.5C204.885 140.5 204.751 144.867 204.485 152.6L208.685 153C208.685 153.933 208.401 154.933 207.835 156H196.335L196.185 154.25C197.718 153.717 199.218 153.317 200.685 153.05C200.551 147.783 200.435 143.8 200.335 141.1C200.235 138.4 199.851 136.533 199.185 135.5C198.518 134.433 197.185 133.9 195.185 133.9C193.185 133.9 191.101 134.467 188.935 135.6ZM234.224 135.6C234.357 136.667 234.424 137.9 234.424 139.3C234.424 140.7 234.29 145.133 234.024 152.6L238.224 153C238.224 153.933 237.94 154.933 237.374 156H225.874L225.724 154.25C227.257 153.717 228.757 153.317 230.224 153.05C230.024 144.183 229.84 139.25 229.674 138.25C229.54 137.25 229.307 136.417 228.974 135.75C228.64 135.05 228.124 134.567 227.424 134.3C226.724 134.033 225.657 133.9 224.224 133.9C222.824 133.9 220.974 134.433 218.674 135.5C218.474 143.1 218.34 148.8 218.274 152.6L222.474 153C222.474 153.933 222.19 154.933 221.624 156H210.124L209.974 154.25C211.507 153.717 213.007 153.317 214.474 153.05C214.44 150.65 214.357 147.267 214.224 142.9C214.09 138.5 214.007 135.617 213.974 134.25C212.14 134.15 210.674 133.95 209.574 133.65L209.774 131.05C211.574 130.55 214.19 130.3 217.624 130.3C218.09 131.133 218.39 132 218.524 132.9C219.99 132.133 221.44 131.467 222.874 130.9C224.307 130.3 225.207 130 225.574 130C229.274 130 231.857 131.133 233.324 133.4C234.857 132.567 236.44 131.8 238.074 131.1C239.74 130.367 240.74 130 241.074 130C244.107 130 246.374 130.75 247.874 132.25C249.407 133.717 250.174 136.133 250.174 139.5C250.174 140.5 250.04 144.867 249.774 152.6L253.974 153C253.974 153.933 253.69 154.933 253.124 156H241.624L241.474 154.25C243.007 153.717 244.507 153.317 245.974 153.05C245.84 147.783 245.724 143.8 245.624 141.1C245.524 138.4 245.14 136.533 244.474 135.5C243.807 134.433 242.474 133.9 240.474 133.9C238.474 133.9 236.39 134.467 234.224 135.6ZM264.263 125.85C263.396 126.05 262.546 126.15 261.713 126.15C260.913 126.15 260.113 126.1 259.313 126C259.113 125.067 259.013 124.133 259.013 123.2C259.013 122.233 259.046 121.517 259.113 121.05C259.846 120.883 260.613 120.8 261.413 120.8C262.246 120.8 263.13 120.833 264.063 120.9C264.263 121.767 264.363 122.617 264.363 123.45C264.363 124.25 264.33 125.05 264.263 125.85ZM255.163 131.1C257.996 130.6 260.196 130.35 261.763 130.35C263.33 130.35 264.33 130.383 264.763 130.45C264.763 131.25 264.663 132.133 264.463 133.1C264.263 134.067 264.146 134.533 264.113 134.5L263.663 152.6L267.863 153C267.863 153.933 267.58 154.933 267.013 156H255.513L255.363 154.25C256.896 153.717 258.396 153.317 259.863 153.05C259.663 144.717 259.496 138.467 259.363 134.3C257.43 134.3 255.963 134.1 254.963 133.7L255.163 131.1ZM285.244 130C288.444 130 290.76 130.8 292.194 132.4C293.627 133.967 294.344 136.367 294.344 139.6C294.344 140.533 294.21 144.867 293.944 152.6L298.144 153C298.144 153.933 297.86 154.933 297.294 156H285.794L285.644 154.25C287.177 153.717 288.677 153.317 290.144 153.05C289.944 144.317 289.76 139.467 289.594 138.5C289.46 137.5 289.227 136.633 288.894 135.9C288.56 135.167 288.06 134.65 287.394 134.35C286.727 134.05 285.844 133.9 284.744 133.9C282.544 133.9 280.41 134.433 278.344 135.5C278.144 143.1 278.01 148.8 277.944 152.6L282.144 153C282.144 153.933 281.86 154.933 281.294 156H269.794L269.644 154.25C271.177 153.717 272.677 153.317 274.144 153.05C273.944 144.583 273.777 138.317 273.644 134.25C271.81 134.15 270.344 133.95 269.244 133.65L269.444 131.05C271.244 130.55 273.86 130.3 277.294 130.3C277.694 130.9 277.994 131.767 278.194 132.9C279.627 132.133 281.06 131.467 282.494 130.9C283.96 130.3 284.877 130 285.244 130ZM312.654 152.95L317.104 152.85C321.704 152.85 324.004 154.75 324.004 158.55C324.004 160.317 323.238 161.95 321.704 163.45C320.204 164.983 318.404 166.133 316.304 166.9C314.204 167.667 312.238 168.05 310.404 168.05C308.604 168.05 306.921 167.783 305.354 167.25C303.788 166.75 302.454 165.917 301.354 164.75C300.254 163.583 299.704 162.233 299.704 160.7C299.704 160.333 300.288 159.367 301.454 157.8C302.654 156.267 303.438 155.367 303.804 155.1C303.504 154.9 302.921 154.333 302.054 153.4C301.188 152.433 300.704 151.767 300.604 151.4C301.438 149.867 302.754 148.367 304.554 146.9C301.888 145.3 300.554 142.667 300.554 139C300.554 136.067 301.488 133.833 303.354 132.3C305.221 130.767 307.554 130 310.354 130C313.154 130 315.321 130.45 316.854 131.35C319.521 130.817 322.138 130.55 324.704 130.55C325.338 130.55 325.654 130.933 325.654 131.7C325.654 133.033 325.404 133.95 324.904 134.45L319.154 133.5C320.354 135.033 320.954 136.867 320.954 139C320.954 142.333 319.971 144.733 318.004 146.2C316.038 147.633 313.621 148.35 310.754 148.35C309.854 148.35 308.788 148.233 307.554 148C307.054 149.033 306.421 150.15 305.654 151.35C306.254 152.417 308.588 152.95 312.654 152.95ZM319.004 162.15C319.338 161.217 319.504 160.25 319.504 159.25C319.504 158.283 319.121 157.5 318.354 156.9C317.588 156.3 316.604 156 315.404 156C310.638 156 307.721 155.95 306.654 155.85C305.754 157.283 305.121 158.483 304.754 159.45C304.421 160.45 304.254 161.017 304.254 161.15C304.254 162.45 304.871 163.417 306.104 164.05C307.338 164.683 308.754 165 310.354 165C311.988 165 313.621 164.733 315.254 164.2C316.921 163.667 318.171 162.983 319.004 162.15ZM316.454 139.2C316.454 135.067 314.554 133 310.754 133C306.954 133 305.054 135 305.054 139C305.054 141.033 305.554 142.6 306.554 143.7C307.554 144.8 309.004 145.35 310.904 145.35C314.604 145.35 316.454 143.3 316.454 139.2Z" fill="black"/>
<path d="M184.787 73.1467C184.106 72.4653 183.297 71.9249 182.407 71.5561C181.517 71.1874 180.563 70.9976 179.6 70.9976C178.637 70.9976 177.683 71.1874 176.793 71.5561C175.903 71.9249 175.094 72.4653 174.413 73.1467L173 74.56L171.587 73.1467C170.211 71.7711 168.345 70.9983 166.4 70.9983C164.455 70.9983 162.589 71.7711 161.213 73.1467C159.838 74.5222 159.065 76.3879 159.065 78.3333C159.065 80.2787 159.838 82.1444 161.213 83.52L173 95.3067L184.787 83.52C185.468 82.839 186.008 82.0304 186.377 81.1405C186.746 80.2505 186.936 79.2966 186.936 78.3333C186.936 77.37 186.746 76.4161 186.377 75.5262C186.008 74.6362 185.468 73.8277 184.787 73.1467Z" stroke="#FF0000" stroke-width="4" stroke-linecap="round" stroke-linejoin="round"/>
</svg>
