<svg width="187" height="188" viewBox="0 0 187 188" fill="none" xmlns="http://www.w3.org/2000/svg">
<path d="M180 94.5C180 141.72 141.496 180 94 180C46.5035 180 8 141.72 8 94.5C8 47.2797 46.5035 9 94 9C141.496 9 180 47.2797 180 94.5Z" fill="#FBFBFB"/>
<path d="M172 94.5C172 137.302 137.078 172 94 172C50.9218 172 16 137.302 16 94.5C16 51.6979 50.9218 17 94 17C137.078 17 172 51.6979 172 94.5Z" fill="#292929"/>
<path d="M45.4283 130H37.1896L49.7429 93.6364H59.6506L72.1861 130H63.9474L54.8388 101.946H54.5547L45.4283 130ZM44.9134 115.707H64.3736V121.708H44.9134V115.707ZM95.4593 104.094C95.3173 102.662 94.7077 101.549 93.6305 100.756C92.5533 99.9633 91.0914 99.5668 89.2449 99.5668C87.9901 99.5668 86.9307 99.7443 86.0666 100.099C85.2025 100.443 84.5396 100.922 84.0779 101.538C83.6281 102.153 83.4032 102.852 83.4032 103.633C83.3796 104.284 83.5157 104.852 83.8116 105.337C84.1194 105.823 84.5396 106.243 85.0723 106.598C85.6049 106.941 86.2205 107.243 86.9189 107.504C87.6172 107.752 88.363 107.965 89.1561 108.143L92.4231 108.924C94.0093 109.279 95.4653 109.753 96.791 110.344C98.1168 110.936 99.265 111.664 100.236 112.528C101.206 113.393 101.958 114.411 102.491 115.582C103.035 116.754 103.313 118.098 103.325 119.613C103.313 121.838 102.745 123.768 101.621 125.401C100.508 127.023 98.898 128.284 96.791 129.183C94.6958 130.071 92.1686 130.515 89.2093 130.515C86.2737 130.515 83.7169 130.065 81.5389 129.165C79.3727 128.266 77.68 126.934 76.4608 125.17C75.2534 123.395 74.6201 121.199 74.5609 118.583H82.0005C82.0834 119.802 82.4326 120.82 83.0481 121.637C83.6755 122.442 84.51 123.052 85.5517 123.466C86.6052 123.868 87.7948 124.07 89.1206 124.07C90.4226 124.07 91.5531 123.88 92.5119 123.501C93.4825 123.123 94.2342 122.596 94.7669 121.921C95.2995 121.246 95.5659 120.471 95.5659 119.595C95.5659 118.778 95.3232 118.092 94.8379 117.536C94.3644 116.979 93.666 116.506 92.7427 116.115C91.8313 115.724 90.7127 115.369 89.3869 115.05L85.4274 114.055C82.3616 113.31 79.9409 112.144 78.1653 110.558C76.3897 108.971 75.5079 106.835 75.5197 104.148C75.5079 101.946 76.0938 100.022 77.2775 98.3771C78.4731 96.7318 80.1125 95.4474 82.1958 94.5241C84.2792 93.6009 86.6466 93.1392 89.2981 93.1392C91.997 93.1392 94.3526 93.6009 96.3649 94.5241C98.389 95.4474 99.9634 96.7318 101.088 98.3771C102.212 100.022 102.792 101.928 102.828 104.094H95.4593ZM108.496 93.6364H117.978L127.992 118.068H128.418L138.433 93.6364H147.914V130H140.457V106.332H140.155L130.744 129.822H125.666L116.256 106.243H115.954V130H108.496V93.6364Z" fill="white"/>
<path d="M45.6037 57.6364L48.608 63.3572L51.6868 57.6364H56.3423L51.6016 65.8182L56.4702 74H51.8359L48.608 68.343L45.4332 74H40.7457L45.6037 65.8182L40.9162 57.6364H45.6037ZM67.1342 74.2983C65.4936 74.2983 64.0341 74.032 62.7557 73.4993C61.4844 72.9595 60.4865 72.2244 59.7621 71.294C59.0376 70.3636 58.6754 69.3089 58.6754 68.13C58.6754 67.2209 58.8814 66.3864 59.2933 65.6264C59.7124 64.8594 60.2805 64.2237 60.9979 63.7195C61.7152 63.2081 62.5178 62.8814 63.4055 62.7393V62.5902C62.2408 62.3558 61.2962 61.7912 60.5717 60.8963C59.8473 59.9943 59.4851 58.9467 59.4851 57.7536C59.4851 56.6243 59.8153 55.6193 60.4759 54.7386C61.1364 53.8509 62.0419 53.1548 63.1925 52.6506C64.3501 52.1392 65.6641 51.8835 67.1342 51.8835C68.6044 51.8835 69.9148 52.1392 71.0653 52.6506C72.223 53.1619 73.1321 53.8615 73.7926 54.7493C74.4531 55.63 74.7869 56.6314 74.794 57.7536C74.7869 58.9538 74.4176 60.0014 73.6861 60.8963C72.9545 61.7912 72.017 62.3558 70.8736 62.5902V62.7393C71.7472 62.8814 72.5391 63.2081 73.2493 63.7195C73.9666 64.2237 74.5348 64.8594 74.9538 65.6264C75.38 66.3864 75.5966 67.2209 75.6037 68.13C75.5966 69.3089 75.2308 70.3636 74.5064 71.294C73.782 72.2244 72.7805 72.9595 71.5021 73.4993C70.2308 74.032 68.7749 74.2983 67.1342 74.2983ZM67.1342 70.9105C67.8658 70.9105 68.505 70.7791 69.0518 70.5163C69.5987 70.2464 70.0249 69.8771 70.3303 69.4084C70.6428 68.9325 70.799 68.3857 70.799 67.7678C70.799 67.1357 70.6392 66.5781 70.3196 66.0952C70 65.6051 69.5668 65.2216 69.0199 64.9446C68.473 64.6605 67.8445 64.5185 67.1342 64.5185C66.4311 64.5185 65.8026 64.6605 65.2486 64.9446C64.6946 65.2216 64.2578 65.6051 63.9382 66.0952C63.6257 66.5781 63.4695 67.1357 63.4695 67.7678C63.4695 68.3857 63.6222 68.9325 63.9276 69.4084C64.233 69.8771 64.6626 70.2464 65.2166 70.5163C65.7706 70.7791 66.4098 70.9105 67.1342 70.9105ZM67.1342 61.1626C67.745 61.1626 68.2884 61.0384 68.7642 60.7898C69.2401 60.5412 69.6129 60.1967 69.8828 59.7564C70.1527 59.3161 70.2876 58.8082 70.2876 58.233C70.2876 57.6648 70.1527 57.1676 69.8828 56.7415C69.6129 56.3082 69.2436 55.9709 68.7749 55.7294C68.3061 55.4808 67.7592 55.3565 67.1342 55.3565C66.5163 55.3565 65.9695 55.4808 65.4936 55.7294C65.0178 55.9709 64.6449 56.3082 64.375 56.7415C64.1122 57.1676 63.9808 57.6648 63.9808 58.233C63.9808 58.8082 64.1158 59.3161 64.3857 59.7564C64.6555 60.1967 65.0284 60.5412 65.5043 60.7898C65.9801 61.0384 66.5234 61.1626 67.1342 61.1626ZM87.2026 74.2983C86.0804 74.2912 84.9973 74.103 83.9533 73.7337C82.9164 73.3643 81.986 72.7642 81.1621 71.9332C80.3382 71.1023 79.6848 70.0014 79.2019 68.6307C78.726 67.2599 78.4881 65.5767 78.4881 63.581C78.4952 61.7486 78.7047 60.1115 79.1167 58.6697C79.5357 57.2209 80.1323 55.9922 80.9064 54.9837C81.6877 53.9751 82.6216 53.2081 83.7083 52.6825C84.7949 52.1499 86.013 51.8835 87.3624 51.8835C88.8184 51.8835 90.1039 52.1676 91.2189 52.7358C92.334 53.2969 93.2289 54.0604 93.9036 55.0263C94.5854 55.9922 94.9973 57.0753 95.1394 58.2756H90.5904C90.4128 57.5156 90.04 56.919 89.4718 56.4858C88.9036 56.0526 88.2005 55.8359 87.3624 55.8359C85.9419 55.8359 84.8624 56.4538 84.1238 57.6896C83.3922 58.9254 83.0194 60.6051 83.0051 62.7287H83.1543C83.481 62.0824 83.9213 61.532 84.4753 61.0774C85.0364 60.6158 85.6721 60.2642 86.3823 60.0227C87.0996 59.7741 87.856 59.6499 88.6515 59.6499C89.9441 59.6499 91.0946 59.9553 92.1032 60.5661C93.1117 61.1697 93.9071 62.0007 94.4895 63.0589C95.0719 64.1172 95.3631 65.3281 95.3631 66.6918C95.3631 68.169 95.0186 69.483 94.3297 70.6335C93.6479 71.7841 92.6926 72.6861 91.464 73.3395C90.2424 73.9858 88.8219 74.3054 87.2026 74.2983ZM87.1813 70.6761C87.8915 70.6761 88.5272 70.5057 89.0882 70.1648C89.6493 69.8239 90.0897 69.3622 90.4093 68.7798C90.7289 68.1974 90.8887 67.544 90.8887 66.8196C90.8887 66.0952 90.7289 65.4453 90.4093 64.87C90.0968 64.2947 89.6635 63.8366 89.1096 63.4957C88.5556 63.1548 87.9235 62.9844 87.2132 62.9844C86.6806 62.9844 86.187 63.0838 85.7324 63.2827C85.285 63.4815 84.8908 63.7585 84.5499 64.1136C84.2161 64.4687 83.9533 64.8807 83.7615 65.3494C83.5698 65.8111 83.4739 66.3047 83.4739 66.8303C83.4739 67.5334 83.6337 68.1761 83.9533 68.7585C84.28 69.3409 84.7203 69.8061 85.2743 70.1541C85.8354 70.5021 86.4711 70.6761 87.1813 70.6761ZM108.179 51.1591L101.148 77.2812H97.2381L104.269 51.1591H108.179ZM118.697 74.2983C117.575 74.2912 116.491 74.103 115.447 73.7337C114.411 73.3643 113.48 72.7642 112.656 71.9332C111.832 71.1023 111.179 70.0014 110.696 68.6307C110.22 67.2599 109.982 65.5767 109.982 63.581C109.989 61.7486 110.199 60.1115 110.611 58.6697C111.03 57.2209 111.626 55.9922 112.401 54.9837C113.182 53.9751 114.116 53.2081 115.202 52.6825C116.289 52.1499 117.507 51.8835 118.857 51.8835C120.313 51.8835 121.598 52.1676 122.713 52.7358C123.828 53.2969 124.723 54.0604 125.398 55.0263C126.08 55.9922 126.491 57.0753 126.634 58.2756H122.085C121.907 57.5156 121.534 56.919 120.966 56.4858C120.398 56.0526 119.695 55.8359 118.857 55.8359C117.436 55.8359 116.357 56.4538 115.618 57.6896C114.886 58.9254 114.513 60.6051 114.499 62.7287H114.648C114.975 62.0824 115.415 61.532 115.969 61.0774C116.531 60.6158 117.166 60.2642 117.876 60.0227C118.594 59.7741 119.35 59.6499 120.146 59.6499C121.438 59.6499 122.589 59.9553 123.597 60.5661C124.606 61.1697 125.401 62.0007 125.984 63.0589C126.566 64.1172 126.857 65.3281 126.857 66.6918C126.857 68.169 126.513 69.483 125.824 70.6335C125.142 71.7841 124.187 72.6861 122.958 73.3395C121.737 73.9858 120.316 74.3054 118.697 74.2983ZM118.675 70.6761C119.386 70.6761 120.021 70.5057 120.582 70.1648C121.143 69.8239 121.584 69.3622 121.903 68.7798C122.223 68.1974 122.383 67.544 122.383 66.8196C122.383 66.0952 122.223 65.4453 121.903 64.87C121.591 64.2947 121.158 63.8366 120.604 63.4957C120.05 63.1548 119.418 62.9844 118.707 62.9844C118.175 62.9844 117.681 63.0838 117.227 63.2827C116.779 63.4815 116.385 63.7585 116.044 64.1136C115.71 64.4687 115.447 64.8807 115.256 65.3494C115.064 65.8111 114.968 66.3047 114.968 66.8303C114.968 67.5334 115.128 68.1761 115.447 68.7585C115.774 69.3409 116.214 69.8061 116.768 70.1541C117.33 70.5021 117.965 70.6761 118.675 70.6761ZM129.798 70.1648V66.532L138.906 52.1818H142.038V57.2102H140.185L134.442 66.2976V66.468H147.386V70.1648H129.798ZM140.27 74V69.0568L140.355 67.4482V52.1818H144.68V74H140.27Z" fill="white"/>
</svg>
